<svg width="1024" height="1024" viewBox="0 0 512 512" fill="none" xmlns="http://www.w3.org/2000/svg">
  <defs>
    <linearGradient id="logo-grad-hq" x1="0%" y1="0%" x2="100%" y2="100%">
      <stop offset="0%" stop-color="#3b82f6" />
      <stop offset="50%" stop-color="#8b5cf6" />
      <stop offset="100%" stop-color="#f97316" />
    </linearGradient>
    <filter id="glow-hq" x="-20%" y="-20%" width="140%" height="140%">
      <feGaussianBlur stdDeviation="12" result="blur" />
      <feComposite in="SourceGraphic" in2="blur" operator="over" />
    </filter>
  </defs>
  <!-- Industrial Frame -->
  <path d="M256 40L450.861 148v216L256 472L61.1385 364V148L256 40Z" fill="#060608" stroke="url(#logo-grad-hq)" stroke-width="20" stroke-linejoin="round"/>
  <!-- Vector Grid Overlay -->
  <path d="M256 80L415 168.33V343.67L256 432L97 343.67V168.33L256 80Z" stroke="#3b82f6" stroke-width="1.5" stroke-dasharray="8 12" opacity="0.3"/>
  <!-- Master Hammer Symbol -->
  <path d="M320 180L300 160L180 280L200 300L220 280V400H260V320L280 300L320 260V180Z" fill="white" filter="url(#glow-hq)"/>
  <!-- Digital Block Accents -->
  <rect x="235" y="340" width="18" height="18" fill="#3b82f6" rx="3" />
  <rect x="235" y="365" width="18" height="18" fill="#f97316" rx="3" />
</svg>